<svg width="1439" height="171" viewBox="0 0 1439 171" fill="none" xmlns="http://www.w3.org/2000/svg">
<mask id="mask0_21_113" style="mask-type:alpha" maskUnits="userSpaceOnUse" x="0" y="0" width="1439" height="171">
<rect width="1439" height="171" fill="#D9D9D9"/>
</mask>
<g mask="url(#mask0_21_113)">
<path d="M-1.33215 24.0984C46.3009 44.6395 173.971 76.2028 303.587 38.1265C338.305 50.9856 425.353 68.9883 495.796 38.1265C549.97 59.8367 686.093 90.2309 797.193 38.1265C848.348 55.1606 943.111 92.2349 1070.41 38.1265C1148.4 74.1988 1339.1 100.251 1447.28 25.6014" stroke="#D6181F" stroke-opacity="0.5" stroke-width="5"/>
<ellipse cx="302.58" cy="39.6295" rx="8.55382" ry="8.51707" fill="#FEA887"/>
<path d="M308.634 39.6295C308.634 42.9425 305.934 45.6466 302.58 45.6466C299.227 45.6466 296.526 42.9425 296.526 39.6295C296.526 36.3165 299.227 33.6124 302.58 33.6124C305.934 33.6124 308.634 36.3165 308.634 39.6295Z" stroke="#D6181F" stroke-opacity="0.5" stroke-width="5"/>
<ellipse cx="498.815" cy="39.6295" rx="8.55382" ry="8.51707" fill="#FEA887"/>
<path d="M504.869 39.6295C504.869 42.9425 502.169 45.6466 498.815 45.6466C495.461 45.6466 492.761 42.9425 492.761 39.6295C492.761 36.3165 495.461 33.6124 498.815 33.6124C502.169 33.6124 504.869 36.3165 504.869 39.6295Z" stroke="#D6181F" stroke-opacity="0.5" stroke-width="5"/>
<ellipse cx="797.696" cy="39.6295" rx="8.55382" ry="8.51707" fill="#FEA887"/>
<path d="M803.749 39.6295C803.749 42.9425 801.049 45.6466 797.696 45.6466C794.342 45.6466 791.642 42.9425 791.642 39.6295C791.642 36.3165 794.342 33.6124 797.696 33.6124C801.049 33.6124 803.749 36.3165 803.749 39.6295Z" stroke="#D6181F" stroke-opacity="0.5" stroke-width="5"/>
<ellipse cx="1069.41" cy="39.6295" rx="8.55382" ry="8.51707" fill="#FEA887"/>
<path d="M1075.46 39.6295C1075.46 42.9425 1072.76 45.6466 1069.41 45.6466C1066.05 45.6466 1063.35 42.9425 1063.35 39.6295C1063.35 36.3165 1066.05 33.6124 1069.41 33.6124C1072.76 33.6124 1075.46 36.3165 1075.46 39.6295Z" stroke="#D6181F" stroke-opacity="0.5" stroke-width="5"/>
<path d="M-28 -25C37.8322 89.1769 211.711 249.025 380.571 -25" stroke="#D6181F" stroke-width="5"/>
<path d="M363.463 -25C408.054 75.5664 525.829 216.359 640.205 -25" stroke="#D6181F" stroke-width="5"/>
<path d="M640.205 -25C711.063 95.226 898.219 263.542 1079.97 -25" stroke="#D6181F" stroke-width="5"/>
<ellipse cx="181.82" cy="126.804" rx="7.54749" ry="7.51506" fill="#FEA887"/>
<path d="M186.868 126.804C186.868 129.564 184.618 131.819 181.82 131.819C179.023 131.819 176.773 129.564 176.773 126.804C176.773 124.045 179.023 121.789 181.82 121.789C184.618 121.789 186.868 124.045 186.868 126.804Z" stroke="#D6181F" stroke-opacity="0.5" stroke-width="5"/>
<ellipse cx="504.853" cy="108.768" rx="7.54749" ry="7.51506" fill="#FEA887"/>
<path d="M509.9 108.768C509.9 111.528 507.651 113.783 504.853 113.783C502.055 113.783 499.805 111.528 499.805 108.768C499.805 106.008 502.055 103.753 504.853 103.753C507.651 103.753 509.9 106.008 509.9 108.768Z" stroke="#D6181F" stroke-opacity="0.5" stroke-width="5"/>
<ellipse cx="864.114" cy="134.82" rx="7.54749" ry="7.51506" fill="#FEA887"/>
<path d="M869.161 134.82C869.161 137.58 866.911 139.835 864.114 139.835C861.316 139.835 859.066 137.58 859.066 134.82C859.066 132.061 861.316 129.805 864.114 129.805C866.911 129.805 869.161 132.061 869.161 134.82Z" stroke="#D6181F" stroke-opacity="0.5" stroke-width="5"/>
<path d="M1062.86 -25C1129.18 101.275 1304.35 278.06 1474.45 -25" stroke="#D6181F" stroke-width="5"/>
<ellipse cx="1277.72" cy="142.836" rx="7.54749" ry="7.51506" fill="#FEA887"/>
<path d="M1282.76 142.836C1282.76 145.596 1280.51 147.851 1277.72 147.851C1274.92 147.851 1272.67 145.596 1272.67 142.836C1272.67 140.077 1274.92 137.821 1277.72 137.821C1280.51 137.821 1282.76 140.077 1282.76 142.836Z" stroke="#D6181F" stroke-opacity="0.5" stroke-width="5"/>
</g>
</svg>
